<?xml version='1.0' encoding='iso-8859-1'?>
<!DOCTYPE svg PUBLIC '-//W3C//DTD SVG 1.1//EN' 'http://www.w3.org/Graphics/SVG/1.1/DTD/svg11.dtd'>
<svg version="1.1" xmlns="http://www.w3.org/2000/svg" viewBox="0 0 312.118 312.118" xmlns:xlink="http://www.w3.org/1999/xlink" enable-background="new 0 0 312.118 312.118">
  <g>
    <path d="m307.743,36.322c-10.135-19.457-38.113-27.528-59.797-30.872-26.945-4.155-58.076-3.161-85.417,2.73-1.673,0.361-3.254,0.949-4.726,1.712-2.087-2.607-4.985-4.536-8.288-5.393-5.307-1.381-10.512-2.425-15.471-3.104-31.479-4.304-62.53,1.421-87.436,16.125-25.85,15.263-42.088,38.303-45.724,64.875-3.634,26.572 5.819,53.126 26.621,74.771 20.041,20.854 48.414,34.709 79.894,39.016 1.933,0.265 3.95,0.487 6.002,0.665 0.579,0.05 1.156,0.074 1.732,0.074 6.523,0 12.784-3.15 16.647-8.476l14.157-19.51c5.048-6.956 4.801-16.483-0.601-23.171l-18.372-22.74 18.884-24.602c3.531-4.601 4.771-10.47 3.401-16.104l-8.348-34.347 4.393-4.807-.921,7.372c-0.788,6.307 1.604,12.563 6.397,16.737l26.335,22.922-1.097,28.504c-0.339,8.83 5.364,16.673 13.867,19.073l27.97,7.894-.18,15.575c-0.077,6.535 3.721,12.499 9.674,15.191 2.175,0.984 4.486,1.465 6.783,1.465 3.988-0.001 7.928-1.449 11.012-4.221 43.219-38.852 79.559-104.816 62.609-137.354zm-187.43-2.88l-.002,.003c-4.286,4.691-5.949,11.18-4.448,17.355l8.423,34.657-19.999,26.054c-5.383,7.01-5.264,16.707 0.292,23.584l18.453,22.84-9.982,13.757c-0.77-0.086-1.525-0.18-2.263-0.28-52.42-7.171-90.61-45.583-85.133-85.628 4.879-35.667 42.775-60.781 88.044-60.781 4.482,0 9.038,0.246 13.64,0.753l-7.025,7.686zm155.43,59.733c-8.151,16.238-19.861,33.037-32.852,47.417-0.257-8.259-5.862-15.489-13.873-17.751l-27.845-7.858 1.026-26.671c0.222-5.792-2.158-11.298-6.532-15.107l-26.093-22.711 2.337-18.714c23.439-4.518 49.518-5.123 72.224-1.621 25.85,3.986 38.477,12.033 41.436,17.712 3.033,5.824 2.28,21.183-9.828,45.304z"/>
    <path d="m193.103,146.041c-4.604-6.283-12.466-9.117-20.022-7.216-7.557,1.902-13.14,8.116-14.224,15.832-2.325,16.563-8.709,42.278-25.916,70.721-10.653,17.61-10.998,39.691-0.898,57.627 10.113,17.958 29.179,29.113 49.756,29.113h8.888c17.425,0 33.96-8.405 44.231-22.484 10.272-14.082 13.229-32.396 7.91-48.989-10.118-31.561-26.848-63.39-49.725-94.604zm21.617,128.859c-5.581,7.651-14.566,12.219-24.034,12.219h-8.888c-11.563,0-22.282-6.276-27.973-16.38-5.681-10.091-5.487-22.513 0.506-32.42 15.048-24.874 22.774-48.043 26.721-65.997 17.148,25.287 29.899,50.785 37.969,75.956 2.891,9.016 1.283,18.968-4.301,26.622z"/>
  </g>
</svg>
